<?xml version="1.0" standalone="no"?>
<!DOCTYPE svg PUBLIC "-//W3C//DTD SVG 20010904//EN"
 "http://www.w3.org/TR/2001/REC-SVG-20010904/DTD/svg10.dtd">
<svg version="1.0" xmlns="http://www.w3.org/2000/svg"
 width="512.000000pt" height="512.000000pt" viewBox="0 0 512.000000 512.000000"
 preserveAspectRatio="xMidYMid meet">
<metadata>
Created by potrace 1.16, written by Peter Selinger 2001-2019
</metadata>
<g transform="translate(0.000000,512.000000) scale(0.100000,-0.100000)"
fill="#000000" stroke="none">
<path d="M2355 4026 c-40 -18 -73 -56 -85 -97 -6 -19 -10 -137 -10 -263 l0
-229 -63 61 c-81 77 -129 93 -196 65 -58 -24 -91 -71 -91 -130 0 -24 6 -56 14
-71 8 -15 87 -99 175 -187 l161 -160 0 -96 0 -96 -548 -486 c-302 -268 -555
-499 -563 -513 -8 -15 -14 -48 -13 -74 1 -83 61 -140 146 -140 53 0 82 17 178
107 41 38 421 377 845 753 424 375 780 692 791 702 l22 19 818 -729 c451 -401
844 -753 874 -782 85 -81 148 -99 220 -62 70 35 102 133 68 208 -7 14 -114
117 -238 227 l-225 201 -5 410 c-5 388 -6 413 -25 445 -29 49 -67 73 -122 78
-55 5 -105 -17 -138 -61 -19 -26 -20 -46 -25 -308 l-5 -280 -377 333 c-583
516 -728 643 -752 656 -28 16 -79 16 -120 -1 -18 -7 -137 -106 -264 -220 -127
-113 -234 -206 -237 -206 -3 0 -5 186 -5 413 0 372 -2 415 -18 447 -34 69
-115 98 -187 66z"/>
<path d="M1952 1690 c-18 -11 -41 -34 -52 -52 -19 -32 -20 -52 -20 -685 l0
-653 288 0 c158 0 358 3 445 7 l157 6 0 646 c0 627 -1 647 -20 679 -11 18 -34
41 -52 52 -31 19 -51 20 -373 20 -322 0 -342 -1 -373 -20z"/>
<path d="M3385 1700 c-11 -4 -33 -22 -50 -40 l-30 -31 -3 -412 c-2 -387 -1
-414 16 -447 11 -19 35 -44 53 -55 32 -19 52 -20 434 -20 445 0 444 0 485 68
19 30 20 53 20 442 0 385 -1 412 -19 439 -10 15 -32 37 -47 47 -27 18 -53 19
-434 18 -223 0 -414 -4 -425 -9z m635 -495 l0 -215 -215 0 -215 0 0 215 0 215
215 0 215 0 0 -215z"/>
<path d="M902 937 l-62 -11 2 -310 3 -311 75 0 75 0 3 323 c2 302 1 322 -15
320 -10 0 -46 -6 -81 -11z"/>
</g>
</svg>
